<?xml version="1.0" encoding="UTF-8" standalone="no"?>
<!-- Created with Inkscape (http://www.inkscape.org/) -->

<svg
   xmlns:dc="http://purl.org/dc/elements/1.1/"
   xmlns:cc="http://creativecommons.org/ns#"
   xmlns:rdf="http://www.w3.org/1999/02/22-rdf-syntax-ns#"
   xmlns:svg="http://www.w3.org/2000/svg"
   xmlns="http://www.w3.org/2000/svg"
   xmlns:sodipodi="http://sodipodi.sourceforge.net/DTD/sodipodi-0.dtd"
   xmlns:inkscape="http://www.inkscape.org/namespaces/inkscape"
   width="744.09448819"
   height="1052.3622047"
   id="svg2"
   version="1.1"
   inkscape:version="0.48.3.1 r9886"
   sodipodi:docname="New document 1">
  <defs
     id="defs4" />
  <sodipodi:namedview
     id="base"
     pagecolor="#ffffff"
     bordercolor="#666666"
     borderopacity="1.0"
     inkscape:pageopacity="0.0"
     inkscape:pageshadow="2"
     inkscape:zoom="2.3001432"
     inkscape:cx="335.10941"
     inkscape:cy="567.0608"
     inkscape:document-units="px"
     inkscape:current-layer="text2985"
     showgrid="false"
     inkscape:window-width="1784"
     inkscape:window-height="1091"
     inkscape:window-x="93"
     inkscape:window-y="52"
     inkscape:window-maximized="0" />
  <metadata
     id="metadata7">
    <rdf:RDF>
      <cc:Work
         rdf:about="">
        <dc:format>image/svg+xml</dc:format>
        <dc:type
           rdf:resource="http://purl.org/dc/dcmitype/StillImage" />
        <dc:title></dc:title>
      </cc:Work>
    </rdf:RDF>
  </metadata>
  <g
     inkscape:label="Layer 1"
     inkscape:groupmode="layer"
     id="layer1">
    <g
       style="font-size:40px;font-style:normal;font-weight:normal;line-height:125%;letter-spacing:0px;word-spacing:0px;fill:#000000;fill-opacity:1;stroke:none;font-family:Sans"
       id="text2985">
      <path
         style="font-variant:normal;font-stretch:normal;font-family:Deftone Stylus;-inkscape-font-specification:Deftone Stylus"
         d="M 222.34375 347.21875 C 220.07565 347.21884 218.20801 347.3195 216.75 347.5625 C 215.37292 347.8056 214.23473 348.17033 213.34375 348.65625 C 212.53369 349.06137 211.94899 349.64608 211.625 350.375 C 211.30089 351.02313 211.15622 351.75259 211.15625 352.5625 C 211.15622 354.74964 212.39515 355.84385 214.90625 355.84375 L 216.25 355.84375 C 219.49003 355.84385 221.12497 356.67405 221.125 358.375 C 221.12497 358.94211 220.90497 359.71557 220.5 360.6875 L 199.71875 407.34375 C 198.26069 410.74586 197.53122 413.70774 197.53125 416.21875 C 197.53122 421.96991 200.66908 424.84378 206.90625 424.84375 C 216.78845 424.84378 225.23402 421.79393 232.28125 415.71875 L 227.5625 426.78125 C 223.51235 427.7533 219.82104 428.97949 216.5 430.4375 C 213.1789 431.89556 210.30503 433.58724 207.875 435.53125 C 205.44491 437.4753 203.53325 439.66369 202.15625 442.09375 C 200.86021 444.52381 200.21871 447.16494 200.21875 450 C 200.21871 453.4831 201.48893 456.1242 204 457.90625 C 206.59202 459.76929 209.88738 460.6875 213.9375 460.6875 C 216.52952 460.6875 219.08265 460.27875 221.59375 459.46875 C 224.18577 458.73973 226.65089 457.45678 229 455.59375 C 231.43 453.81169 233.75038 451.40334 235.9375 448.40625 C 238.12449 445.4092 240.12414 441.70512 241.90625 437.25 C 244.82226 436.68301 247.84086 435.68956 251 434.3125 C 254.24 432.93548 257.28985 431.3758 260.125 429.59375 C 261.31655 428.81072 262.4229 427.96527 263.5 427.125 C 263.44557 427.6415 263.40625 428.14565 263.40625 428.625 C 263.40625 431.62209 264.55717 433.99922 266.90625 435.78125 C 269.2553 437.48229 273.39935 438.34375 279.3125 438.34375 C 283.03857 438.34375 286.4659 438.02303 289.625 437.375 C 292.78405 436.64598 295.74589 435.18708 298.5 433 C 301.33503 430.81298 304.06414 427.58711 306.65625 423.375 C 309.24825 419.16292 311.90211 413.5472 314.65625 406.5 C 319.69705 405.98301 324.0362 404.94614 327.65625 403.375 L 321.46875 417.3125 C 319.44366 421.84863 318.40622 425.77268 318.40625 429.09375 C 318.40622 432.00985 319.26767 434.28622 320.96875 435.90625 C 322.75077 437.52631 325.49262 438.34375 329.21875 438.34375 C 332.94479 438.34375 336.17062 437.84703 338.84375 436.875 C 341.59776 435.90298 343.65416 434.8528 345.03125 433.71875 C 345.43619 434.8528 346.25366 435.90298 347.46875 436.875 C 348.68372 437.84703 350.46339 438.34375 352.8125 438.34375 C 355.4855 438.34375 358.54809 437.6583 362.03125 436.28125 C 365.51425 434.90423 368.92883 433.13732 372.25 431.03125 C 372.7841 430.69254 373.27933 430.36195 373.78125 430.03125 C 373.96833 430.60808 374.20375 431.15037 374.46875 431.65625 C 375.35976 433.27631 376.45396 434.60325 377.75 435.65625 C 379.12702 436.62828 380.59869 437.31376 382.21875 437.71875 C 383.91976 438.12366 385.55468 438.34375 387.09375 438.34375 C 388.71375 438.34375 390.53741 438.21176 392.5625 437.96875 C 394.66851 437.64476 396.7689 437.09128 398.875 436.28125 C 401.06202 435.39024 403.16241 434.16405 405.1875 432.625 C 407.29351 431.08598 409.20515 429.04233 410.90625 426.53125 C 413.57925 428.23233 415.9564 429.82324 418.0625 431.28125 C 420.24949 432.73931 422.24913 434.00949 424.03125 435.0625 C 425.89422 436.11554 427.67389 436.90176 429.375 437.46875 C 431.15696 438.03586 433.02464 438.34375 434.96875 438.34375 C 437.56074 438.34375 439.89387 438.12378 442 437.71875 C 443.61042 437.42053 445.25043 436.91343 446.90625 436.21875 C 449.01469 437.62161 451.62825 438.34375 454.71875 438.34375 C 458.44479 438.34375 461.36264 437.93503 463.46875 437.125 C 465.65574 436.315 467.58014 435.17681 469.28125 433.71875 C 469.52419 435.0958 470.06491 436.23399 470.875 437.125 C 471.76596 437.93503 472.9169 438.34375 474.375 438.34375 C 477.53402 438.34375 481.03658 437.71502 484.84375 436.5 C 488.65077 435.20398 492.29809 433.55631 495.78125 431.53125 C 497.60412 430.47143 499.31427 429.34921 500.9375 428.15625 C 500.87177 428.71916 500.81248 429.25444 500.8125 429.71875 C 500.81247 432.06783 501.58592 434.08024 503.125 435.78125 C 504.745 437.48229 506.93339 438.34375 509.6875 438.34375 C 512.92752 438.34375 516.44286 437.67104 520.25 436.375 C 524.05705 435.07899 527.70434 433.43131 531.1875 431.40625 C 534.67053 429.30021 537.76437 426.97983 540.4375 424.46875 C 543.19149 421.95771 545.0719 419.49258 546.125 417.0625 L 542.5 412.34375 C 541.8519 413.63982 540.75771 415.09875 539.21875 416.71875 C 537.67964 418.25782 535.95672 419.71676 534.09375 421.09375 C 532.23065 422.38982 530.35024 423.48402 528.40625 424.375 C 526.54315 425.26604 524.86422 425.68753 523.40625 425.6875 C 522.59619 425.68753 522.18744 425.36679 522.1875 424.71875 C 522.18744 424.23277 522.40744 423.59131 522.8125 422.78125 L 535.4375 394.59375 L 540.90625 394.59375 L 543.9375 387.78125 L 538.46875 387.78125 L 555.71875 348.90625 L 535.0625 350.25 L 518.1875 387.78125 L 513.09375 387.78125 L 510.0625 394.59375 L 515.28125 394.59375 L 507.375 412.40625 L 507.3125 412.34375 C 506.74538 413.55881 505.7392 414.92976 504.28125 416.46875 C 502.82313 417.92682 501.18821 419.29774 499.40625 420.59375 C 497.62413 421.88982 495.80048 422.98402 493.9375 423.875 C 492.07438 424.76604 490.47071 425.21878 489.09375 425.21875 C 487.71663 425.21878 487.03118 424.59006 487.03125 423.375 C 487.03118 422.72702 487.17592 421.99756 487.5 421.1875 C 487.90494 420.29651 488.57765 418.83759 489.46875 416.8125 L 502.21875 388.28125 L 487.75 388.28125 L 486.53125 391.0625 C 485.64015 389.68553 484.48922 388.54733 483.03125 387.65625 C 481.65413 386.68429 479.28976 386.21881 475.96875 386.21875 C 473.61964 386.21881 471.34325 386.58354 469.15625 387.3125 C 466.96914 387.96056 464.78074 389.15551 462.59375 390.9375 C 460.40663 392.71962 458.17426 395.18474 455.90625 398.34375 C 453.71917 401.42188 451.43002 405.38991 449 410.25 C 447.13693 413.81414 445.722 417.18471 444.75 420.34375 C 443.77795 423.50286 443.28122 426.14395 443.28125 428.25 C 443.28124 429.01977 443.32968 429.72356 443.4375 430.40625 C 443.2088 430.41742 442.97922 430.4375 442.75 430.4375 C 440.88687 430.43753 438.97521 429.98479 437.03125 429.09375 C 435.16813 428.12175 433.21247 426.93955 431.1875 425.5625 C 429.16238 424.1045 427.06199 422.58881 424.875 420.96875 C 422.68788 419.26774 420.3675 417.7208 417.9375 416.34375 C 419.39547 414.31875 421.16238 411.89762 423.1875 409.0625 C 425.21249 406.14646 427.80962 402.23518 430.96875 397.375 C 434.12777 392.51494 437.96381 386.49048 442.5 379.28125 C 447.03601 371.99117 452.595 362.96086 459.15625 352.1875 C 459.31815 352.02559 459.4189 351.74887 459.5 351.34375 C 459.66191 350.93884 459.74991 350.61801 459.75 350.375 C 459.74991 349.64608 459.42916 348.97336 458.78125 348.40625 C 458.21413 347.83943 457.57268 347.5626 456.84375 347.5625 L 403.84375 347.5625 C 402.62869 347.5626 401.71048 347.97135 401.0625 348.78125 C 400.49539 349.59138 400.21872 350.54084 400.21875 351.59375 C 400.21872 352.56587 400.49545 353.44009 401.0625 354.25 C 401.62946 355.06012 402.44693 355.46884 403.5 355.46875 L 432.03125 355.46875 C 432.6792 355.46884 433.132 355.64482 433.375 355.96875 C 433.61801 356.21184 433.74994 356.53259 433.75 356.9375 C 433.75 357.34259 433.6619 357.72009 433.5 358.125 C 433.41889 358.44911 433.2869 358.757 433.125 359 C 429.07482 366.04726 425.47151 372.26045 422.3125 377.6875 C 419.15336 383.03369 416.27949 387.77521 413.6875 391.90625 C 411.09538 396.03741 408.76226 399.64071 406.65625 402.71875 C 404.55014 405.79687 402.59449 408.61399 400.8125 411.125 C 399.84044 410.88203 398.46949 410.6619 396.6875 410.5 C 394.98642 410.25699 393.01804 410.15628 390.75 410.15625 C 387.34789 410.15628 384.48678 410.57777 382.21875 411.46875 C 380.03166 412.35982 378.25202 413.54199 376.875 415 C 375.49794 416.37705 374.53574 418.012 373.96875 419.875 C 373.79152 420.4319 373.65216 420.99755 373.53125 421.5625 C 372.19079 422.44883 370.82232 423.2127 369.4375 423.875 C 367.65538 424.76604 366.1397 425.21878 364.84375 425.21875 C 363.38565 425.21878 362.65619 424.59006 362.65625 423.375 C 362.65619 422.565 362.80092 421.83553 363.125 421.1875 L 376 392.15625 L 360.59375 383.78125 L 342.59375 424.375 C 340.97366 427.93911 339.28199 429.71878 337.5 429.71875 C 336.36592 429.71878 335.78119 429.04605 335.78125 427.75 C 335.78119 426.535 336.10193 425.16408 336.75 423.625 L 352.5625 388.28125 L 334.34375 388.28125 L 331.6875 394.25 C 329.92053 395.51234 328.20364 396.46044 326.5625 397.03125 C 324.78038 397.59837 323.08872 397.87506 321.46875 397.875 C 320.90167 397.875 320.30419 397.8311 319.65625 397.75 C 319.08916 397.58803 318.40369 397.4122 317.59375 397.25 C 319.05172 394.09098 319.78119 391.39313 319.78125 389.125 C 319.78119 387.01902 319.10845 385.38408 317.8125 384.25 C 316.5164 383.11605 314.50401 382.56256 311.75 382.5625 C 307.45684 382.56256 303.85351 383.88949 300.9375 386.5625 C 300.45142 386.40059 299.85396 386.34381 299.125 386.34375 C 298.39592 386.26295 297.34574 386.21881 295.96875 386.21875 C 293.61964 386.21881 291.34327 386.53956 289.15625 387.1875 C 287.05015 387.83557 284.99375 388.92977 282.96875 390.46875 C 281.02467 391.92685 279.11301 393.89524 277.25 396.40625 C 275.46792 398.91735 273.73226 402.01122 272.03125 405.65625 L 268.875 412.5 L 268.75 412.34375 C 268.1019 413.72083 266.87571 415.23649 265.09375 416.9375 C 263.39262 418.63857 261.52496 420.18551 259.5 421.5625 C 257.87988 422.69655 256.1002 423.64601 254.15625 424.375 C 252.29312 425.02304 249.74 425.5325 246.5 425.9375 L 282.59375 347.5625 L 262.4375 347.5625 L 238.625 401.15625 C 235.62786 406.42143 230.88636 410.57822 224.40625 413.65625 C 222.30014 414.62831 220.75324 415.12503 219.78125 415.125 C 218.80919 415.12503 218.31247 414.67232 218.3125 413.78125 C 218.31247 413.37628 218.48846 412.9108 218.8125 412.34375 L 241.03125 361.90625 C 242.08422 359.5573 242.62494 357.5009 242.625 355.71875 C 242.62494 352.39777 240.80128 350.16539 237.15625 349.03125 C 233.51111 347.81631 228.58086 347.21884 222.34375 347.21875 z M 309.5625 389.84375 C 310.29146 389.84381 310.78824 390.12053 311.03125 390.6875 C 311.35536 391.17357 311.49994 391.84629 311.5 392.65625 C 311.49994 393.30432 311.39926 393.94581 311.15625 394.59375 C 310.9942 395.24182 310.77425 395.75128 310.53125 396.15625 C 307.93914 396.15631 306.65619 395.00536 306.65625 392.65625 C 306.65619 390.79328 307.6184 389.84381 309.5625 389.84375 z M 476.9375 394.71875 C 477.74747 394.71882 478.28824 394.90756 478.53125 395.3125 C 478.85536 395.63655 478.99994 396.00128 479 396.40625 C 478.99994 396.64931 478.99994 396.92604 479 397.25 C 479 397.49306 478.9119 397.757 478.75 398 L 467.09375 424.375 C 465.39265 427.93911 463.61301 429.71878 461.75 429.71875 C 460.61593 429.71878 460.06244 429.04605 460.0625 427.75 C 460.06244 426.45399 460.42717 425.08307 461.15625 423.625 L 472.1875 398.71875 C 472.75446 397.34176 473.38318 396.33556 474.03125 395.6875 C 474.76021 395.03955 475.72241 394.71882 476.9375 394.71875 z M 296.4375 394.84375 C 296.35639 395.24881 296.31244 395.80229 296.3125 396.53125 C 296.31244 397.58431 296.48845 398.59054 296.8125 399.5625 C 297.21747 400.45357 297.81494 401.13905 298.625 401.625 L 287.34375 427.15625 C 286.77669 428.2903 286.04724 429.1645 285.15625 429.8125 C 284.34619 430.37962 283.48473 430.68753 282.59375 430.6875 C 281.2167 430.68753 280.53122 429.91405 280.53125 428.375 C 280.53122 427.64601 280.71997 426.82854 281.125 425.9375 L 292.3125 400.4375 C 293.04148 398.65551 293.68295 397.38533 294.25 396.65625 C 294.89798 395.84628 295.62744 395.24881 296.4375 394.84375 z M 390.125 418.53125 C 391.82601 418.53128 393.60568 418.72003 395.46875 419.125 C 392.95764 423.17511 390.85726 425.90423 389.15625 427.28125 C 387.45518 428.57729 385.95227 429.21878 384.65625 429.21875 C 383.52221 429.21878 382.60398 428.94202 381.875 428.375 C 381.22696 427.80801 380.90622 426.62581 380.90625 424.84375 C 380.90622 422.98075 381.64845 421.4778 383.1875 420.34375 C 384.72652 419.12876 387.0469 418.53128 390.125 418.53125 z M 222.8125 437 C 222.00244 439.67306 221.12824 441.90548 220.15625 443.6875 C 219.26517 445.46955 218.127 447.2052 216.75 448.90625 C 215.93994 450.12127 214.88973 450.71875 213.59375 450.71875 C 212.8647 450.71875 212.19199 450.57402 211.625 450.25 C 211.05789 450.00699 210.78122 449.51027 210.78125 448.78125 C 210.78122 447.56622 211.05795 446.34003 211.625 445.125 C 212.27298 443.99099 213.13444 442.89679 214.1875 441.84375 C 215.32149 440.79075 216.63568 439.82855 218.09375 438.9375 C 219.55175 438.1275 221.11143 437.48601 222.8125 437 z "
         id="path3003" />
    </g>
  </g>
</svg>
